<svg width="151" height="73" viewBox="0 0 151 73" fill="none" xmlns="http://www.w3.org/2000/svg">
<path d="M5.64 41.32C4.81333 41.32 4.17333 41.0933 3.72 40.64C3.29333 40.16 3.08 39.5067 3.08 38.68V15.4C3.08 14.5467 3.30667 13.9067 3.76 13.48C4.21333 13.0267 4.85333 12.8 5.68 12.8H15.32C18.4133 12.8 20.8 13.5467 22.48 15.04C24.16 16.5067 25 18.5733 25 21.24C25 22.9733 24.6133 24.4667 23.84 25.72C23.0933 26.9733 22 27.9333 20.56 28.6C19.12 29.2667 17.3733 29.6 15.32 29.6L15.68 29H17C18.0933 29 19.04 29.2667 19.84 29.8C20.6667 30.3333 21.3867 31.1733 22 32.32L25 37.88C25.32 38.44 25.4667 38.9867 25.44 39.52C25.4133 40.0533 25.2133 40.4933 24.84 40.84C24.4667 41.16 23.92 41.32 23.2 41.32C22.48 41.32 21.8933 41.1733 21.44 40.88C20.9867 40.56 20.5867 40.08 20.24 39.44L16.2 32C15.72 31.0933 15.1467 30.4933 14.48 30.2C13.84 29.88 13.0133 29.72 12 29.72H8.2V38.68C8.2 39.5067 7.98667 40.16 7.56 40.64C7.13333 41.0933 6.49333 41.32 5.64 41.32ZM8.2 25.92H14.44C16.28 25.92 17.6667 25.5467 18.6 24.8C19.56 24.0267 20.04 22.88 20.04 21.36C20.04 19.8667 19.56 18.7467 18.6 18C17.6667 17.2267 16.28 16.84 14.44 16.84H8.2V25.92ZM33.0619 41.32C32.2352 41.32 31.5952 41.0933 31.1419 40.64C30.7152 40.16 30.5019 39.5067 30.5019 38.68V15.12C30.5019 14.2667 30.7152 13.6133 31.1419 13.16C31.5952 12.7067 32.2352 12.48 33.0619 12.48C33.8885 12.48 34.5152 12.7067 34.9419 13.16C35.3952 13.6133 35.6219 14.2667 35.6219 15.12V38.68C35.6219 39.5067 35.4085 40.16 34.9819 40.64C34.5552 41.0933 33.9152 41.32 33.0619 41.32ZM54.4309 41.4C51.7109 41.4 49.3243 40.8 47.2709 39.6C45.2443 38.4 43.6709 36.72 42.5509 34.56C41.4309 32.3733 40.8709 29.8133 40.8709 26.88C40.8709 24.6667 41.1909 22.68 41.8309 20.92C42.4709 19.1333 43.3776 17.6133 44.5509 16.36C45.7509 15.08 47.1776 14.1067 48.8309 13.44C50.5109 12.7467 52.3776 12.4 54.4309 12.4C57.1776 12.4 59.5643 13 61.5909 14.2C63.6176 15.3733 65.1909 17.04 66.3109 19.2C67.4309 21.36 67.9909 23.9067 67.9909 26.84C67.9909 29.0533 67.6709 31.0533 67.0309 32.84C66.3909 34.6267 65.4709 36.16 64.2709 37.44C63.0976 38.72 61.6709 39.7067 59.9909 40.4C58.3376 41.0667 56.4843 41.4 54.4309 41.4ZM54.4309 37C56.1643 37 57.6309 36.6 58.8309 35.8C60.0576 35 60.9909 33.84 61.6309 32.32C62.2976 30.8 62.6309 28.9867 62.6309 26.88C62.6309 23.68 61.9109 21.2 60.4709 19.44C59.0576 17.68 57.0443 16.8 54.4309 16.8C52.7243 16.8 51.2576 17.2 50.0309 18C48.8043 18.7733 47.8576 19.92 47.1909 21.44C46.5509 22.9333 46.2309 24.7467 46.2309 26.88C46.2309 30.0533 46.9509 32.5333 48.3909 34.32C49.8309 36.1067 51.8443 37 54.4309 37ZM72.8913 41.32C72.2513 41.32 71.7313 41.1733 71.3313 40.88C70.9579 40.5867 70.7313 40.2 70.6513 39.72C70.5713 39.2133 70.6646 38.6533 70.9313 38.04L81.4913 14.64C81.8379 13.8667 82.2513 13.32 82.7313 13C83.2379 12.6533 83.8113 12.48 84.4513 12.48C85.0646 12.48 85.6113 12.6533 86.0913 13C86.5979 13.32 87.0246 13.8667 87.3713 14.64L97.9713 38.04C98.2646 38.6533 98.3713 39.2133 98.2913 39.72C98.2113 40.2267 97.9846 40.6267 97.6113 40.92C97.2379 41.1867 96.7446 41.32 96.1313 41.32C95.3846 41.32 94.7979 41.1467 94.3713 40.8C93.9713 40.4267 93.6113 39.8667 93.2913 39.12L90.6913 33.08L92.8513 34.48H75.9713L78.1313 33.08L75.5713 39.12C75.2246 39.8933 74.8646 40.4533 74.4913 40.8C74.1179 41.1467 73.5846 41.32 72.8913 41.32ZM84.3713 18.36L78.7713 31.68L77.7313 30.4H91.0913L90.0912 31.68L84.4513 18.36H84.3713ZM104.937 41.32C104.11 41.32 103.47 41.0933 103.017 40.64C102.59 40.16 102.377 39.5067 102.377 38.68V15.4C102.377 14.5467 102.604 13.9067 103.057 13.48C103.51 13.0267 104.15 12.8 104.977 12.8H114.617C117.71 12.8 120.097 13.5467 121.777 15.04C123.457 16.5067 124.297 18.5733 124.297 21.24C124.297 22.9733 123.91 24.4667 123.137 25.72C122.39 26.9733 121.297 27.9333 119.857 28.6C118.417 29.2667 116.67 29.6 114.617 29.6L114.977 29H116.297C117.39 29 118.337 29.2667 119.137 29.8C119.964 30.3333 120.684 31.1733 121.297 32.32L124.297 37.88C124.617 38.44 124.764 38.9867 124.737 39.52C124.71 40.0533 124.51 40.4933 124.137 40.84C123.764 41.16 123.217 41.32 122.497 41.32C121.777 41.32 121.19 41.1733 120.737 40.88C120.284 40.56 119.884 40.08 119.537 39.44L115.497 32C115.017 31.0933 114.444 30.4933 113.777 30.2C113.137 29.88 112.31 29.72 111.297 29.72H107.497V38.68C107.497 39.5067 107.284 40.16 106.857 40.64C106.43 41.0933 105.79 41.32 104.937 41.32ZM107.497 25.92H113.737C115.577 25.92 116.964 25.5467 117.897 24.8C118.857 24.0267 119.337 22.88 119.337 21.36C119.337 19.8667 118.857 18.7467 117.897 18C116.964 17.2267 115.577 16.84 113.737 16.84H107.497V25.92ZM138.378 41.32C137.551 41.32 136.911 41.0933 136.458 40.64C136.031 40.16 135.818 39.5067 135.818 38.68V17.08H128.018C127.324 17.08 126.778 16.8933 126.378 16.52C126.004 16.12 125.817 15.5867 125.817 14.92C125.817 14.2267 126.004 13.7067 126.378 13.36C126.778 12.9867 127.324 12.8 128.018 12.8H148.738C149.431 12.8 149.964 12.9867 150.338 13.36C150.738 13.7067 150.938 14.2267 150.938 14.92C150.938 15.5867 150.738 16.12 150.338 16.52C149.964 16.8933 149.431 17.08 148.738 17.08H140.938V38.68C140.938 39.5067 140.724 40.16 140.298 40.64C139.871 41.0933 139.231 41.32 138.378 41.32Z" fill="#2E90FA"/>
<path d="M89.576 69.108C88.944 69.108 88.4 68.988 87.944 68.748C87.496 68.5 87.148 68.152 86.9 67.704C86.652 67.248 86.528 66.712 86.528 66.096C86.528 65.488 86.648 64.956 86.888 64.5C87.136 64.044 87.472 63.688 87.896 63.432C88.328 63.176 88.82 63.048 89.372 63.048C89.764 63.048 90.116 63.116 90.428 63.252C90.748 63.38 91.02 63.568 91.244 63.816C91.468 64.064 91.636 64.368 91.748 64.728C91.868 65.08 91.928 65.48 91.928 65.928C91.928 66.056 91.888 66.156 91.808 66.228C91.736 66.292 91.628 66.324 91.484 66.324H87.38V65.628H91.208L91.004 65.796C91.004 65.38 90.94 65.028 90.812 64.74C90.692 64.444 90.512 64.22 90.272 64.068C90.04 63.916 89.748 63.84 89.396 63.84C89.012 63.84 88.684 63.932 88.412 64.116C88.14 64.292 87.932 64.544 87.788 64.872C87.644 65.192 87.572 65.564 87.572 65.988V66.06C87.572 66.78 87.744 67.324 88.088 67.692C88.432 68.06 88.928 68.244 89.576 68.244C89.832 68.244 90.092 68.212 90.356 68.148C90.628 68.084 90.888 67.968 91.136 67.8C91.256 67.728 91.364 67.696 91.46 67.704C91.564 67.704 91.648 67.736 91.712 67.8C91.776 67.856 91.816 67.928 91.832 68.016C91.848 68.096 91.836 68.184 91.796 68.28C91.756 68.376 91.68 68.46 91.568 68.532C91.304 68.716 90.988 68.86 90.62 68.964C90.26 69.06 89.912 69.108 89.576 69.108ZM97.1502 69.108C96.3102 69.108 95.5902 68.932 94.9902 68.58C94.3902 68.228 93.9262 67.728 93.5982 67.08C93.2782 66.424 93.1182 65.652 93.1182 64.764C93.1182 64.1 93.2102 63.504 93.3942 62.976C93.5782 62.44 93.8422 61.984 94.1862 61.608C94.5302 61.224 94.9502 60.932 95.4462 60.732C95.9502 60.532 96.5182 60.432 97.1502 60.432C97.6302 60.432 98.0902 60.5 98.5302 60.636C98.9782 60.772 99.3622 60.964 99.6822 61.212C99.8102 61.3 99.8942 61.4 99.9342 61.512C99.9742 61.624 99.9782 61.732 99.9462 61.836C99.9222 61.932 99.8702 62.016 99.7902 62.088C99.7182 62.152 99.6262 62.188 99.5142 62.196C99.4022 62.196 99.2822 62.152 99.1542 62.064C98.8742 61.848 98.5662 61.692 98.2302 61.596C97.9022 61.492 97.5502 61.44 97.1742 61.44C96.5582 61.44 96.0342 61.572 95.6022 61.836C95.1782 62.092 94.8542 62.468 94.6302 62.964C94.4142 63.452 94.3062 64.052 94.3062 64.764C94.3062 65.468 94.4142 66.072 94.6302 66.576C94.8542 67.072 95.1782 67.452 95.6022 67.716C96.0342 67.972 96.5582 68.1 97.1742 68.1C97.5502 68.1 97.9062 68.048 98.2422 67.944C98.5862 67.84 98.9022 67.68 99.1902 67.464C99.3182 67.376 99.4342 67.336 99.5382 67.344C99.6502 67.352 99.7422 67.388 99.8142 67.452C99.8862 67.508 99.9342 67.588 99.9582 67.692C99.9902 67.788 99.9902 67.888 99.9582 67.992C99.9262 68.096 99.8542 68.188 99.7422 68.268C99.4142 68.548 99.0222 68.76 98.5662 68.904C98.1182 69.04 97.6462 69.108 97.1502 69.108ZM103.446 69.108C102.87 69.108 102.37 68.984 101.946 68.736C101.522 68.488 101.194 68.136 100.962 67.68C100.73 67.224 100.614 66.688 100.614 66.072C100.614 65.608 100.678 65.192 100.806 64.824C100.942 64.448 101.134 64.128 101.382 63.864C101.63 63.6 101.926 63.4 102.27 63.264C102.622 63.12 103.014 63.048 103.446 63.048C104.022 63.048 104.522 63.172 104.946 63.42C105.37 63.668 105.698 64.02 105.93 64.476C106.162 64.924 106.278 65.456 106.278 66.072C106.278 66.536 106.21 66.956 106.074 67.332C105.946 67.708 105.758 68.028 105.51 68.292C105.262 68.556 104.962 68.76 104.61 68.904C104.266 69.04 103.878 69.108 103.446 69.108ZM103.446 68.244C103.798 68.244 104.102 68.16 104.358 67.992C104.622 67.824 104.822 67.58 104.958 67.26C105.102 66.94 105.174 66.544 105.174 66.072C105.174 65.368 105.018 64.832 104.706 64.464C104.394 64.096 103.974 63.912 103.446 63.912C103.102 63.912 102.798 63.996 102.534 64.164C102.278 64.324 102.078 64.564 101.934 64.884C101.79 65.204 101.718 65.6 101.718 66.072C101.718 66.776 101.874 67.316 102.186 67.692C102.506 68.06 102.926 68.244 103.446 68.244ZM108.241 69.084C108.073 69.084 107.941 69.036 107.845 68.94C107.749 68.844 107.701 68.704 107.701 68.52V63.624C107.701 63.44 107.749 63.304 107.845 63.216C107.941 63.12 108.073 63.072 108.241 63.072C108.409 63.072 108.537 63.12 108.625 63.216C108.721 63.304 108.769 63.44 108.769 63.624V64.644L108.637 64.428C108.789 63.988 109.033 63.648 109.369 63.408C109.713 63.168 110.121 63.048 110.593 63.048C111.089 63.048 111.489 63.168 111.793 63.408C112.097 63.64 112.301 63.996 112.405 64.476H112.237C112.381 64.036 112.637 63.688 113.005 63.432C113.381 63.176 113.817 63.048 114.313 63.048C114.753 63.048 115.113 63.136 115.393 63.312C115.681 63.48 115.897 63.736 116.041 64.08C116.185 64.416 116.257 64.848 116.257 65.376V68.52C116.257 68.704 116.209 68.844 116.113 68.94C116.017 69.036 115.885 69.084 115.717 69.084C115.541 69.084 115.405 69.036 115.309 68.94C115.213 68.844 115.165 68.704 115.165 68.52V65.424C115.165 64.912 115.077 64.536 114.901 64.296C114.725 64.056 114.429 63.936 114.013 63.936C113.557 63.936 113.193 64.096 112.921 64.416C112.657 64.728 112.525 65.16 112.525 65.712V68.52C112.525 68.704 112.477 68.844 112.381 68.94C112.293 69.036 112.161 69.084 111.985 69.084C111.809 69.084 111.673 69.036 111.577 68.94C111.481 68.844 111.433 68.704 111.433 68.52V65.424C111.433 64.912 111.345 64.536 111.169 64.296C110.993 64.056 110.697 63.936 110.281 63.936C109.825 63.936 109.461 64.096 109.189 64.416C108.925 64.728 108.793 65.16 108.793 65.712V68.52C108.793 68.896 108.609 69.084 108.241 69.084ZM118.577 69.084C118.409 69.084 118.277 69.036 118.181 68.94C118.085 68.844 118.037 68.704 118.037 68.52V63.624C118.037 63.44 118.085 63.304 118.181 63.216C118.277 63.12 118.409 63.072 118.577 63.072C118.745 63.072 118.873 63.12 118.961 63.216C119.057 63.304 119.105 63.44 119.105 63.624V64.644L118.973 64.428C119.125 63.988 119.369 63.648 119.705 63.408C120.049 63.168 120.457 63.048 120.929 63.048C121.425 63.048 121.825 63.168 122.129 63.408C122.433 63.64 122.637 63.996 122.741 64.476H122.573C122.717 64.036 122.973 63.688 123.341 63.432C123.717 63.176 124.153 63.048 124.649 63.048C125.089 63.048 125.449 63.136 125.729 63.312C126.017 63.48 126.233 63.736 126.377 64.08C126.521 64.416 126.593 64.848 126.593 65.376V68.52C126.593 68.704 126.545 68.844 126.449 68.94C126.353 69.036 126.221 69.084 126.053 69.084C125.877 69.084 125.741 69.036 125.645 68.94C125.549 68.844 125.501 68.704 125.501 68.52V65.424C125.501 64.912 125.413 64.536 125.237 64.296C125.061 64.056 124.765 63.936 124.349 63.936C123.893 63.936 123.529 64.096 123.257 64.416C122.993 64.728 122.861 65.16 122.861 65.712V68.52C122.861 68.704 122.813 68.844 122.717 68.94C122.629 69.036 122.497 69.084 122.321 69.084C122.145 69.084 122.009 69.036 121.913 68.94C121.817 68.844 121.769 68.704 121.769 68.52V65.424C121.769 64.912 121.681 64.536 121.505 64.296C121.329 64.056 121.033 63.936 120.617 63.936C120.161 63.936 119.797 64.096 119.525 64.416C119.261 64.728 119.129 65.16 119.129 65.712V68.52C119.129 68.896 118.945 69.084 118.577 69.084ZM131.049 69.108C130.417 69.108 129.873 68.988 129.417 68.748C128.969 68.5 128.621 68.152 128.373 67.704C128.125 67.248 128.001 66.712 128.001 66.096C128.001 65.488 128.121 64.956 128.361 64.5C128.609 64.044 128.945 63.688 129.369 63.432C129.801 63.176 130.293 63.048 130.845 63.048C131.237 63.048 131.589 63.116 131.901 63.252C132.221 63.38 132.493 63.568 132.717 63.816C132.941 64.064 133.109 64.368 133.221 64.728C133.341 65.08 133.401 65.48 133.401 65.928C133.401 66.056 133.361 66.156 133.281 66.228C133.209 66.292 133.101 66.324 132.957 66.324H128.853V65.628H132.681L132.477 65.796C132.477 65.38 132.413 65.028 132.285 64.74C132.165 64.444 131.985 64.22 131.745 64.068C131.513 63.916 131.221 63.84 130.869 63.84C130.485 63.84 130.157 63.932 129.885 64.116C129.613 64.292 129.405 64.544 129.261 64.872C129.117 65.192 129.045 65.564 129.045 65.988V66.06C129.045 66.78 129.217 67.324 129.561 67.692C129.905 68.06 130.401 68.244 131.049 68.244C131.305 68.244 131.565 68.212 131.829 68.148C132.101 68.084 132.361 67.968 132.609 67.8C132.729 67.728 132.837 67.696 132.933 67.704C133.037 67.704 133.121 67.736 133.185 67.8C133.249 67.856 133.289 67.928 133.305 68.016C133.321 68.096 133.309 68.184 133.269 68.28C133.229 68.376 133.153 68.46 133.041 68.532C132.777 68.716 132.461 68.86 132.093 68.964C131.733 69.06 131.385 69.108 131.049 69.108ZM135.323 69.084C135.139 69.084 134.999 69.036 134.903 68.94C134.807 68.844 134.759 68.704 134.759 68.52V63.624C134.759 63.44 134.807 63.304 134.903 63.216C134.999 63.12 135.131 63.072 135.299 63.072C135.467 63.072 135.595 63.12 135.683 63.216C135.779 63.304 135.827 63.44 135.827 63.624V64.548H135.707C135.835 64.068 136.075 63.704 136.427 63.456C136.779 63.208 137.223 63.068 137.759 63.036C137.887 63.028 137.991 63.06 138.071 63.132C138.151 63.196 138.195 63.308 138.203 63.468C138.211 63.62 138.175 63.744 138.095 63.84C138.015 63.928 137.891 63.98 137.723 63.996L137.507 64.008C136.979 64.064 136.571 64.236 136.283 64.524C136.003 64.812 135.863 65.208 135.863 65.712V68.52C135.863 68.704 135.815 68.844 135.719 68.94C135.631 69.036 135.499 69.084 135.323 69.084ZM141.592 69.108C141 69.108 140.488 68.984 140.056 68.736C139.624 68.48 139.292 68.124 139.06 67.668C138.828 67.204 138.712 66.66 138.712 66.036C138.712 65.572 138.776 65.156 138.904 64.788C139.04 64.42 139.232 64.108 139.48 63.852C139.728 63.588 140.028 63.388 140.38 63.252C140.74 63.116 141.144 63.048 141.592 63.048C141.872 63.048 142.168 63.092 142.48 63.18C142.792 63.268 143.08 63.412 143.344 63.612C143.432 63.676 143.488 63.752 143.512 63.84C143.536 63.92 143.536 64.004 143.512 64.092C143.496 64.18 143.456 64.256 143.392 64.32C143.336 64.376 143.26 64.408 143.164 64.416C143.076 64.424 142.98 64.396 142.876 64.332C142.684 64.188 142.48 64.084 142.264 64.02C142.056 63.956 141.856 63.924 141.664 63.924C141.368 63.924 141.104 63.972 140.872 64.068C140.648 64.164 140.456 64.304 140.296 64.488C140.144 64.664 140.028 64.884 139.948 65.148C139.868 65.404 139.828 65.704 139.828 66.048C139.828 66.728 139.988 67.264 140.308 67.656C140.628 68.04 141.08 68.232 141.664 68.232C141.856 68.232 142.056 68.204 142.264 68.148C142.472 68.084 142.676 67.98 142.876 67.836C142.98 67.772 143.076 67.748 143.164 67.764C143.252 67.772 143.324 67.808 143.38 67.872C143.444 67.928 143.484 68 143.5 68.088C143.516 68.168 143.508 68.252 143.476 68.34C143.452 68.428 143.396 68.5 143.308 68.556C143.052 68.748 142.772 68.888 142.468 68.976C142.164 69.064 141.872 69.108 141.592 69.108ZM147.221 69.108C146.589 69.108 146.045 68.988 145.589 68.748C145.141 68.5 144.793 68.152 144.545 67.704C144.297 67.248 144.173 66.712 144.173 66.096C144.173 65.488 144.293 64.956 144.533 64.5C144.781 64.044 145.117 63.688 145.541 63.432C145.973 63.176 146.465 63.048 147.017 63.048C147.409 63.048 147.761 63.116 148.073 63.252C148.393 63.38 148.665 63.568 148.889 63.816C149.113 64.064 149.281 64.368 149.393 64.728C149.513 65.08 149.573 65.48 149.573 65.928C149.573 66.056 149.533 66.156 149.453 66.228C149.381 66.292 149.273 66.324 149.129 66.324H145.025V65.628H148.853L148.649 65.796C148.649 65.38 148.585 65.028 148.457 64.74C148.337 64.444 148.157 64.22 147.917 64.068C147.685 63.916 147.393 63.84 147.041 63.84C146.657 63.84 146.329 63.932 146.057 64.116C145.785 64.292 145.577 64.544 145.433 64.872C145.289 65.192 145.217 65.564 145.217 65.988V66.06C145.217 66.78 145.389 67.324 145.733 67.692C146.077 68.06 146.573 68.244 147.221 68.244C147.477 68.244 147.737 68.212 148.001 68.148C148.273 68.084 148.533 67.968 148.781 67.8C148.901 67.728 149.009 67.696 149.105 67.704C149.209 67.704 149.293 67.736 149.357 67.8C149.421 67.856 149.461 67.928 149.477 68.016C149.493 68.096 149.481 68.184 149.441 68.28C149.401 68.376 149.325 68.46 149.213 68.532C148.949 68.716 148.633 68.86 148.265 68.964C147.905 69.06 147.557 69.108 147.221 69.108Z" fill="#98A2B3"/>
</svg>
